<svg xmlns="http://www.w3.org/2000/svg" viewBox="0 0 160 80">
<path d="M48 30C42 28 30 24 18 20C10 17 4 15 1 14C-1 13.5-1 16 1 16.5C6 18 14 22 22 26C30 30 36 32 42 33Z" fill="#C9A84C"/>
<path d="M112 30C118 28 130 24 142 20C150 17 156 15 159 14C161 13.5 161 16 159 16.5C154 18 146 22 138 26C130 30 124 32 118 33Z" fill="#C9A84C"/>
<path d="M48 30C50 24 56 20 80 20C104 20 110 24 112 30C110 33 106 36 100 38L60 38C54 36 50 33 48 30Z" fill="#C9A84C"/>
<path d="M60 38C56 38 52 40 50 44C48 48 48 52 50 56C52 58 56 59 60 58Z" fill="#C9A84C"/>
<path d="M100 38C104 38 108 40 110 44C112 48 112 52 110 56C108 58 104 59 100 58Z" fill="#C9A84C"/>
<path d="M72 38L68 58L64 68C66 72 70 75 80 75C90 75 94 72 96 68L92 58L88 38Z" fill="#C9A84C"/>
<path d="M60 58C62 60 64 64 64 68C62 70 58 70 54 68C50 64 50 60 50 56C52 58 56 59 60 58Z" fill="#C9A84C"/>
<path d="M100 58C98 60 96 64 96 68C98 70 102 70 106 68C110 64 110 60 110 56C108 58 104 59 100 58Z" fill="#C9A84C"/>
<ellipse cx="68" cy="44" rx="6" ry="7" fill="#0A0A0F" transform="rotate(-5 68 44)"/>
<ellipse cx="92" cy="44" rx="6" ry="7" fill="#0A0A0F" transform="rotate(5 92 44)"/>
<path d="M76 58C76 55 78 53 80 53C82 53 84 55 84 58C84 62 82 64 80 64C78 64 76 62 76 58Z" fill="#0A0A0F"/>
</svg>
